Coordinates
version=1
nRows=4
nColumns=63
inDegrees=yes

Units are S.I. units (second, meters, Newtons, ...)
If the header above contains a line with 'inDegrees', this indicates whether rotational values are in degrees (yes) or radians (no).

endheader
time	pelvis_tilt	pelvis_list	pelvis_rotation	pelvis_tx	pelvis_ty	pelvis_tz	hip_flexion_r	hip_adduction_r	hip_rotation_r	knee_angle_r	knee_angle_r_beta	ankle_angle_r	subtalar_angle_r	mtp_angle_r	hip_flexion_l	hip_adduction_l	hip_rotation_l	knee_angle_l	knee_angle_l_beta	ankle_angle_l	subtalar_angle_l	mtp_angle_l	L5_S1_Flex_Ext	L5_S1_Lat_Bending	L5_S1_axial_rotation	L4_L5_Flex_Ext	L4_L5_Lat_Bending	L4_L5_axial_rotation	L3_L4_Flex_Ext	L3_L4_Lat_Bending	L3_L4_axial_rotation	L2_L3_Flex_Ext	L2_L3_Lat_Bending	L2_L3_axial_rotation	L1_L2_Flex_Ext	L1_L2_Lat_Bending	L1_L2_axial_rotation	L1_T12_Flex_Ext	L1_T12_Lat_Bending	L1_T12_axial_rotation	Abs_r3	Abs_r2	Abs_r1	Abs_t1	Abs_t2	neck_flexion	neck_bending	neck_rotation	arm_flex_r	arm_add_r	arm_rot_r	elbow_flex_r	pro_sup_r	wrist_flex_r	wrist_dev_r	arm_flex_l	arm_add_l	arm_rot_l	elbow_flex_l	pro_sup_l	wrist_flex_l	wrist_dev_l
      1.28571429	     10.10401524	     -0.07466842	     92.53714129	      0.39059837	      0.66801022	      0.83481685	     11.03846250	      4.44024016	     -3.42622499	      4.29211079	      0.07491147	     28.25729939	     -2.07799578	      0.00000000	     10.95862161	     -3.40879943	      0.88433835	      5.21021796	      0.09093546	     26.57644426	      9.34365326	      0.00000000	     -0.14090821	      0.55065343	      0.23994666	     -0.26168063	      0.73236906	      0.25494333	     -0.23149809	      1.33885874	      0.25494333	     -0.16104399	      1.33885874	      0.20995333	     -0.13084736	      1.12289247	      0.19495666	     -0.08051495	      0.85296216	      0.17996000	     -1.00649323	      6.22910168	      1.33451136	      0.00000000	      0.00000000	     13.64400656	     -7.50172601	     31.16000147	      4.86132817	    -23.72711777	     48.77368338	     35.16726093	     60.09323169	     -3.48890721	     -5.56849418	     16.28590509	    -17.21342661	    110.17900582	      1.98239446	      6.09054382	     -9.57814435	    -15.58074480
      1.30612245	      9.87339273	     -0.11263653	     92.61762739	      0.39054468	      0.66799823	      0.83460978	     10.36858671	      4.23766821	     -2.35214808	      3.48761752	      0.06087041	     26.62683546	     -4.33382220	      0.00000000	     11.21004040	     -3.14946871	      0.34346597	      5.61585993	      0.09801525	     26.65557322	     10.32100556	      0.00000000	     -0.12453757	      0.52464816	      0.24911572	     -0.23127872	      0.69778205	      0.26468545	     -0.20460277	      1.27562953	      0.26468545	     -0.14233399	      1.27562953	      0.21797625	     -0.11564558	      1.06986252	      0.20240652	     -0.07116077	      0.81268000	      0.18683679	     -0.88955939	      5.93492489	      1.38550687	      0.00000000	      0.00000000	     13.84471157	     -7.36882883	     30.77618205	      5.49381827	    -23.95524117	     49.90103863	     35.12497719	     59.83814973	     -3.29934592	     -5.86336690	     17.45438189	    -18.04181374	    105.03560126	      2.70332881	      5.98087976	     -6.65985041	    -14.21210216
      1.32653061	      9.69215188	     -0.10992823	     92.41373804	      0.39062266	      0.66814923	      0.83398364	      9.73315849	      4.07568522	     -2.12663987	      2.74794653	      0.04796071	     25.42848223	     -5.07126470	      0.00000000	     11.28005957	     -2.96114033	      0.17137940	      5.86002611	      0.10227675	     26.68233748	     10.56139278	      0.00000000	     -0.10908235	      0.51512498	      0.28346714	     -0.20257684	      0.68511622	      0.30118383	     -0.17921140	      1.25247487	      0.30118383	     -0.12467022	      1.25247487	      0.24803375	     -0.10129387	      1.05044286	      0.23031705	     -0.06232966	      0.79792859	      0.21260035	     -0.77916435	      5.82719678	      1.57655918	      0.00000000	      0.00000000	     13.91749043	     -7.47520446	     30.70399900	      6.30614005	    -24.22542166	     51.07882364	     34.99459344	     61.64053086	     -3.63679066	     -6.31128524	     18.53360476	    -18.71890313	    103.89892441	      3.20934629	      6.62718039	     -6.81327061	    -12.79852191
      1.34693878	      9.45663710	     -0.10624992	     91.78391374	      0.39128034	      0.66832245	      0.83292516	      9.14031313	      3.90217874	     -1.58644465	      2.01031476	      0.03508661	     24.51337078	     -5.47669028	      0.00000000	     11.23636729	     -2.78606640	     -0.06263697	      6.05946425	      0.10575760	     26.84835541	     10.46172420	      0.00000000	     -0.09859132	      0.50753328	      0.34207513	     -0.18309395	      0.67501926	      0.36345483	     -0.16197569	      1.23401641	      0.36345483	     -0.11268002	      1.23401641	      0.29931574	     -0.09155190	      1.03496186	      0.27793605	     -0.05633508	      0.78616904	      0.25655635	     -0.70422797	      5.74131792	      1.90251927	      0.00000000	      0.00000000	     13.98975692	     -7.42805770	     31.53142306	      7.38673378	    -24.44489374	     52.51022848	     34.83291512	     65.15411677	     -4.72391933	     -6.81463654	     19.29900038	    -19.36069132	    104.38021619	      3.38371228	      8.41585204	     -8.25092995	    -13.18985402
